<svg width="17" height="17" viewBox="0 0 17 17" fill="none" xmlns="http://www.w3.org/2000/svg">
<g clipPath="url(#clip0_1_687)">
<path d="M15.9286 7.92816H6.70457C6.39469 6.71062 5.15646 5.97482 3.93888 6.28469C3.13143 6.49021 2.50093 7.12071 2.29541 7.92816H1.07144C0.755837 7.92816 0.5 8.184 0.5 8.4996C0.5 8.8152 0.755837 9.07101 1.07144 9.07101H2.29545C2.60532 10.2886 3.84356 11.0244 5.06114 10.7145C5.86859 10.509 6.49909 9.87846 6.70461 9.07101H15.9286C16.2442 9.07101 16.5 8.81517 16.5 8.49957C16.5 8.18397 16.2442 7.92816 15.9286 7.92816ZM4.50001 9.64245C3.86884 9.64245 3.35716 9.13077 3.35716 8.4996C3.35716 7.86843 3.86884 7.35676 4.50001 7.35676C5.13118 7.35676 5.64285 7.86843 5.64285 8.4996C5.64285 9.13077 5.13118 9.64245 4.50001 9.64245Z" fill="#656565"/>
<path d="M15.9286 2.21429H14.1331C13.8233 0.996744 12.585 0.260941 11.3675 0.570818C10.56 0.776332 9.9295 1.40683 9.72399 2.21429H1.07144C0.755837 2.21429 0.5 2.47012 0.5 2.78573C0.5 3.10133 0.755837 3.35717 1.07144 3.35717H9.72399C10.0339 4.57471 11.2721 5.31051 12.4897 5.00064C13.2971 4.79512 13.9276 4.16462 14.1331 3.35717H15.9286C16.2442 3.35717 16.5 3.10133 16.5 2.78573C16.5 2.47012 16.2442 2.21429 15.9286 2.21429ZM11.9286 3.92857C11.2974 3.92857 10.7857 3.4169 10.7857 2.78573C10.7857 2.15456 11.2974 1.64288 11.9286 1.64288C12.5598 1.64288 13.0714 2.15456 13.0714 2.78573C13.0714 3.4169 12.5598 3.92857 11.9286 3.92857Z" fill="#656565"/>
<path d="M15.9286 13.6429H12.9903C12.6804 12.4253 11.4422 11.6895 10.2246 11.9994C9.41713 12.2049 8.78662 12.8354 8.58111 13.6429H1.07144C0.755837 13.6429 0.5 13.8987 0.5 14.2143C0.5 14.5298 0.755837 14.7857 1.07144 14.7857H8.58114C8.89102 16.0033 10.1293 16.7391 11.3468 16.4292C12.1543 16.2237 12.7848 15.5932 12.9903 14.7857H15.9286C16.2442 14.7857 16.5 14.5299 16.5 14.2143C16.5 13.8987 16.2442 13.6429 15.9286 13.6429ZM10.7857 15.3572C10.1545 15.3572 9.64286 14.8455 9.64286 14.2143C9.64286 13.5831 10.1545 13.0715 10.7857 13.0715C11.4169 13.0715 11.9286 13.5831 11.9286 14.2143C11.9286 14.8455 11.4169 15.3572 10.7857 15.3572Z" fill="#656565"/>
</g>
<defs>
<clipPath id="clip0_1_687">
<rect width="16" height="16" fill="white" transform="translate(0.5 0.5)"/>
</clipPath>
</defs>
</svg>
