<svg width="16" height="13" viewBox="0 0 16 13" fill="none" xmlns="http://www.w3.org/2000/svg">
<path d="M14.823 1.15156C14.7525 0.73141 14.3387 0.450085 13.9191 0.507402L11.3903 0.92229C10.9602 0.993279 10.6689 1.3987 10.7398 1.82884C10.8098 2.25898 11.2194 2.55187 11.6453 2.4793L12.3458 2.36415L9.26487 6.83695L5.35892 4.9781C5.00661 4.81088 4.58436 4.92604 4.36613 5.24943L0.135217 11.5201C-0.108248 11.8813 -0.0130711 12.3714 0.348182 12.6149C0.705753 12.8557 1.19741 12.7663 1.44351 12.4024L5.29424 6.69497L9.1944 8.55119C9.54514 8.71788 9.96318 8.60483 10.183 8.28617L13.5852 3.34642L13.683 3.94219C13.7529 4.37391 14.1673 4.66207 14.589 4.59266C15.0191 4.52167 15.3105 4.11625 15.2395 3.68611C15.2384 3.6798 14.8256 1.15734 14.823 1.15156Z" fill="#18C768"/>
</svg>
