<svg width="14" height="11" viewBox="0 0 14 11" fill="none" xmlns="http://www.w3.org/2000/svg">
<path d="M13.608 10.4149C13.5433 10.7922 13.1634 11.0448 12.7782 10.9934L10.4566 10.6208C10.0618 10.557 9.79431 10.193 9.85948 9.8067C9.92369 9.42044 10.2997 9.15742 10.6908 9.22259L11.3338 9.326L8.50538 5.30943L4.91953 6.97867C4.59609 7.12883 4.20845 7.02542 4.00811 6.73501L0.12393 1.10397C-0.0995817 0.779567 -0.0122051 0.339471 0.319442 0.12084C0.647709 -0.0954294 1.09908 -0.0151548 1.325 0.311611L4.86016 5.43692L8.44069 3.77004C8.76268 3.62035 9.14646 3.72187 9.34825 4.00803L12.4716 8.44392L12.5614 7.90891C12.6256 7.52123 13.006 7.26246 13.3932 7.3248C13.7881 7.38854 14.0555 7.75261 13.9903 8.13888C13.9894 8.14454 13.6104 10.4097 13.608 10.4149Z" fill="#FF0000"/>
</svg>
