<svg width="20" height="20" viewBox="0 0 20 20" fill="none" xmlns="http://www.w3.org/2000/svg">
<path d="M8.76624 1.87552C4.97072 1.87552 1.87552 4.97072 1.87552 8.76624C1.87552 12.5618 4.97072 15.6508 8.76624 15.6508C10.4383 15.6508 11.9722 15.0495 13.1665 14.0541L17.0838 17.9714C17.1419 18.0299 17.2111 18.0763 17.2872 18.1079C17.3634 18.1396 17.4451 18.1559 17.5276 18.1559C17.6101 18.1559 17.6917 18.1396 17.7679 18.1079C17.8441 18.0763 17.9132 18.0299 17.9714 17.9714C18.0299 17.9132 18.0763 17.8441 18.1079 17.7679C18.1396 17.6917 18.1559 17.6101 18.1559 17.5276C18.1559 17.4451 18.1396 17.3634 18.1079 17.2872C18.0763 17.2111 18.0299 17.1419 17.9714 17.0838L14.0541 13.1665C15.0495 11.9722 15.6508 10.4383 15.6508 8.76624C15.6508 4.97072 12.5618 1.87552 8.76624 1.87552ZM8.76624 3.12871C11.8851 3.12871 14.3989 5.64733 14.3989 8.76624C14.3989 11.8851 11.8851 14.3989 8.76624 14.3989C5.64733 14.3989 3.12871 11.8851 3.12871 8.76624C3.12871 5.64733 5.64733 3.12871 8.76624 3.12871Z" fill="white"/>
</svg>
