<svg width="37" height="40" viewBox="0 0 37 40" fill="none" xmlns="http://www.w3.org/2000/svg">
<g filter="url(#filter0_b_13_455)">
<path d="M18.7526 2.09846L7.13329 5.78064C2.89904 7.12248 1.14276 10.7198 2.27722 15.7271L5.38735 29.4548C6.52181 34.4622 9.56361 36.539 13.7979 35.1972L25.4172 31.515C29.6514 30.1731 31.3966 26.5793 30.2622 21.572L27.1521 7.84427C26.0176 2.83692 22.9868 0.756621 18.7526 2.09846Z" fill="url(#paint0_linear_13_455)"/>
</g>
<g opacity="0.5" filter="url(#filter1_f_13_455)">
<path d="M24.4782 20.0892L22.3682 10.6363C21.6028 7.20743 19.6873 5.66999 17.1686 6.45637L8.63813 9.11978C6.07815 9.91906 5.08688 12.3641 5.85224 15.7929L7.96227 25.2459C8.73996 28.73 10.6099 30.2213 13.1699 29.422L21.7004 26.7586C24.219 25.9722 25.2559 23.5733 24.4782 20.0892Z" fill="#FF854D"/>
</g>
<g filter="url(#filter2_b_13_455)">
<mask id="path-3-outside-1_13_455" maskUnits="userSpaceOnUse" x="8.95801" y="7.57471" width="28" height="32" fill="black">
<rect fill="white" x="8.95801" y="7.57471" width="28" height="32"/>
<path d="M28.8527 8.57471H16.8246C12.4414 8.57471 9.95801 11.5118 9.95801 16.6958V30.9078C9.95801 36.0918 12.4414 39.0289 16.8246 39.0289H28.8527C33.2359 39.0289 35.7079 36.0918 35.7079 30.9078V16.6958C35.7079 11.5118 33.2359 8.57471 28.8527 8.57471Z"/>
</mask>
<path d="M28.8527 8.57471H16.8246C12.4414 8.57471 9.95801 11.5118 9.95801 16.6958V30.9078C9.95801 36.0918 12.4414 39.0289 16.8246 39.0289H28.8527C33.2359 39.0289 35.7079 36.0918 35.7079 30.9078V16.6958C35.7079 11.5118 33.2359 8.57471 28.8527 8.57471Z" fill="#FFAC95" fill-opacity="0.4"/>
<path d="M28.8527 8.89783C29.0312 8.89783 29.1758 8.75316 29.1758 8.57471C29.1758 8.39625 29.0312 8.25158 28.8527 8.25158V8.89783ZM28.8527 8.25158C28.6743 8.25158 28.5296 8.39625 28.5296 8.57471C28.5296 8.75316 28.6743 8.89783 28.8527 8.89783V8.25158ZM28.8527 8.25158H16.8246V8.89783H28.8527V8.25158ZM16.8246 8.25158C14.5563 8.25158 12.742 9.01482 11.5009 10.4826C10.2666 11.9424 9.63488 14.0569 9.63488 16.6958H10.2811C10.2811 14.1507 10.8911 12.2047 11.9944 10.8999C13.0908 9.60316 14.7098 8.89783 16.8246 8.89783V8.25158ZM9.63488 16.6958V30.9078H10.2811V16.6958H9.63488ZM9.63488 30.9078C9.63488 33.5467 10.2666 35.6612 11.5009 37.121C12.742 38.5888 14.5563 39.352 16.8246 39.352V38.7058C14.7098 38.7058 13.0908 38.0005 11.9944 36.7037C10.8911 35.3989 10.2811 33.4529 10.2811 30.9078H9.63488ZM16.8246 39.352H28.8527V38.7058H16.8246V39.352ZM28.8527 39.352C31.1211 39.352 32.9328 38.5888 34.171 37.1207C35.4023 35.6609 36.031 33.5464 36.031 30.9078H35.3848C35.3848 33.4532 34.7775 35.3993 33.677 36.704C32.5835 38.0005 30.9675 38.7058 28.8527 38.7058V39.352ZM36.031 30.9078V16.6958H35.3848V30.9078H36.031ZM36.031 16.6958C36.031 14.0573 35.4023 11.9428 34.171 10.4829C32.9328 9.01488 31.1211 8.25158 28.8527 8.25158V8.89783C30.9675 8.89783 32.5835 9.60311 33.677 10.8996C34.7775 12.2043 35.3848 14.1504 35.3848 16.6958H36.031Z" fill="url(#paint1_linear_13_455)" mask="url(#path-3-outside-1_13_455)"/>
</g>
<g filter="url(#filter3_bd_13_455)">
<mask id="path-5-inside-2_13_455" fill="white">
<path fill-rule="evenodd" clip-rule="evenodd" d="M22.8773 14.8011C22.2936 14.8011 21.813 15.3695 21.813 16.0734V31.5306C21.813 32.2209 22.2936 32.7894 22.8773 32.7894C23.4724 32.7894 23.9531 32.2209 23.9531 31.5306V16.0734C23.9531 15.3695 23.4724 14.8011 22.8773 14.8011ZM16.8688 19.7961C16.2852 19.7961 15.8045 20.3646 15.8045 21.0684V31.5312C15.8045 32.2215 16.2852 32.7899 16.8688 32.7899C17.4639 32.7899 17.9446 32.2215 17.9446 31.5312V21.0684C17.9446 20.3646 17.4639 19.7961 16.8688 19.7961ZM27.7301 26.5908C27.7301 25.8869 28.2108 25.3184 28.8059 25.3184C29.3896 25.3184 29.8702 25.8869 29.8702 26.5908V31.5311C29.8702 32.2214 29.3896 32.7899 28.7945 32.7899C28.2108 32.7899 27.7301 32.2214 27.7301 31.5311V26.5908Z"/>
</mask>
<path fill-rule="evenodd" clip-rule="evenodd" d="M22.8773 14.8011C22.2936 14.8011 21.813 15.3695 21.813 16.0734V31.5306C21.813 32.2209 22.2936 32.7894 22.8773 32.7894C23.4724 32.7894 23.9531 32.2209 23.9531 31.5306V16.0734C23.9531 15.3695 23.4724 14.8011 22.8773 14.8011ZM16.8688 19.7961C16.2852 19.7961 15.8045 20.3646 15.8045 21.0684V31.5312C15.8045 32.2215 16.2852 32.7899 16.8688 32.7899C17.4639 32.7899 17.9446 32.2215 17.9446 31.5312V21.0684C17.9446 20.3646 17.4639 19.7961 16.8688 19.7961ZM27.7301 26.5908C27.7301 25.8869 28.2108 25.3184 28.8059 25.3184C29.3896 25.3184 29.8702 25.8869 29.8702 26.5908V31.5311C29.8702 32.2214 29.3896 32.7899 28.7945 32.7899C28.2108 32.7899 27.7301 32.2214 27.7301 31.5311V26.5908Z" fill="url(#paint2_linear_13_455)"/>
<path d="M21.9422 16.0734C21.9422 15.4188 22.3853 14.9303 22.8773 14.9303V14.6718C22.202 14.6718 21.6837 15.3203 21.6837 16.0734H21.9422ZM21.9422 31.5306V16.0734H21.6837V31.5306H21.9422ZM22.8773 32.6601C22.3845 32.6601 21.9422 32.1707 21.9422 31.5306H21.6837C21.6837 32.2711 22.2028 32.9186 22.8773 32.9186V32.6601ZM23.8238 31.5306C23.8238 32.1697 23.3824 32.6601 22.8773 32.6601V32.9186C23.5625 32.9186 24.0823 32.272 24.0823 31.5306H23.8238ZM23.8238 16.0734V31.5306H24.0823V16.0734H23.8238ZM22.8773 14.9303C23.3815 14.9303 23.8238 15.4198 23.8238 16.0734H24.0823C24.0823 15.3193 23.5633 14.6718 22.8773 14.6718V14.9303ZM15.9338 21.0684C15.9338 20.4139 16.3768 19.9254 16.8688 19.9254V19.6669C16.1935 19.6669 15.6753 20.3154 15.6753 21.0684H15.9338ZM15.9338 31.5312V21.0684H15.6753V31.5312H15.9338ZM16.8688 32.6607C16.376 32.6607 15.9338 32.1713 15.9338 31.5312H15.6753C15.6753 32.2717 16.1943 32.9192 16.8688 32.9192V32.6607ZM17.8154 31.5312C17.8154 32.1703 17.3739 32.6607 16.8688 32.6607V32.9192C17.554 32.9192 18.0739 32.2726 18.0739 31.5312H17.8154ZM17.8154 21.0684V31.5312H18.0739V21.0684H17.8154ZM16.8688 19.9254C17.3731 19.9254 17.8154 20.4148 17.8154 21.0684H18.0739C18.0739 20.3144 17.5548 19.6669 16.8688 19.6669V19.9254ZM28.8059 25.1892C28.1199 25.1892 27.6009 25.8367 27.6009 26.5908H27.8594C27.8594 25.9371 28.3017 25.4477 28.8059 25.4477V25.1892ZM29.9995 26.5908C29.9995 25.8377 29.4812 25.1892 28.8059 25.1892V25.4477C29.2979 25.4477 29.741 25.9362 29.741 26.5908H29.9995ZM29.9995 31.5311V26.5908H29.741V31.5311H29.9995ZM28.7945 32.9191C29.4796 32.9191 29.9995 32.2726 29.9995 31.5311H29.741C29.741 32.1702 29.2995 32.6606 28.7945 32.6606V32.9191ZM27.6009 31.5311C27.6009 32.2716 28.1199 32.9191 28.7945 32.9191V32.6606C28.3017 32.6606 27.8594 32.1712 27.8594 31.5311H27.6009ZM27.6009 26.5908V31.5311H27.8594V26.5908H27.6009Z" fill="url(#paint3_linear_13_455)" mask="url(#path-5-inside-2_13_455)"/>
</g>
<defs>
<filter id="filter0_b_13_455" x="-2.26049" y="-2.50057" width="37.0615" height="42.2971" filterUnits="userSpaceOnUse" color-interpolation-filters="sRGB">
<feFlood flood-opacity="0" result="BackgroundImageFix"/>
<feGaussianBlur in="BackgroundImageFix" stdDeviation="2.10031"/>
<feComposite in2="SourceAlpha" operator="in" result="effect1_backgroundBlur_13_455"/>
<feBlend mode="normal" in="SourceGraphic" in2="effect1_backgroundBlur_13_455" result="shape"/>
</filter>
<filter id="filter1_f_13_455" x="1.39955" y="2.05403" width="27.5326" height="31.7794" filterUnits="userSpaceOnUse" color-interpolation-filters="sRGB">
<feFlood flood-opacity="0" result="BackgroundImageFix"/>
<feBlend mode="normal" in="SourceGraphic" in2="BackgroundImageFix" result="shape"/>
<feGaussianBlur stdDeviation="2.10031" result="effect1_foregroundBlur_13_455"/>
</filter>
<filter id="filter2_b_13_455" x="4.78803" y="3.40473" width="36.0898" height="40.7942" filterUnits="userSpaceOnUse" color-interpolation-filters="sRGB">
<feFlood flood-opacity="0" result="BackgroundImageFix"/>
<feGaussianBlur in="BackgroundImageFix" stdDeviation="2.42343"/>
<feComposite in2="SourceAlpha" operator="in" result="effect1_backgroundBlur_13_455"/>
<feBlend mode="normal" in="SourceGraphic" in2="effect1_backgroundBlur_13_455" result="shape"/>
</filter>
<filter id="filter3_bd_13_455" x="10.9576" y="9.95421" width="23.7595" height="27.6826" filterUnits="userSpaceOnUse" color-interpolation-filters="sRGB">
<feFlood flood-opacity="0" result="BackgroundImageFix"/>
<feGaussianBlur in="BackgroundImageFix" stdDeviation="2.42343"/>
<feComposite in2="SourceAlpha" operator="in" result="effect1_backgroundBlur_13_455"/>
<feColorMatrix in="SourceAlpha" type="matrix" values="0 0 0 0 0 0 0 0 0 0 0 0 0 0 0 0 0 0 127 0" result="hardAlpha"/>
<feOffset dx="1.61562" dy="1.61562"/>
<feGaussianBlur stdDeviation="1.61562"/>
<feColorMatrix type="matrix" values="0 0 0 0 1 0 0 0 0 0.447059 0 0 0 0 0.368627 0 0 0 0.5 0"/>
<feBlend mode="normal" in2="effect1_backgroundBlur_13_455" result="effect2_dropShadow_13_455"/>
<feBlend mode="normal" in="SourceGraphic" in2="effect2_dropShadow_13_455" result="shape"/>
</filter>
<linearGradient id="paint0_linear_13_455" x1="18.5473" y1="20.0391" x2="-3.11182" y2="35.9206" gradientUnits="userSpaceOnUse">
<stop stop-color="#FF7023"/>
<stop offset="1" stop-color="#FD7308"/>
</linearGradient>
<linearGradient id="paint1_linear_13_455" x1="14.057" y1="12.1227" x2="33.9086" y2="32.9114" gradientUnits="userSpaceOnUse">
<stop stop-color="white" stop-opacity="0.25"/>
<stop offset="1" stop-color="white" stop-opacity="0"/>
</linearGradient>
<linearGradient id="paint2_linear_13_455" x1="12.1636" y1="28.1528" x2="20.7257" y2="43.0256" gradientUnits="userSpaceOnUse">
<stop stop-color="white"/>
<stop offset="1" stop-color="white" stop-opacity="0.2"/>
</linearGradient>
<linearGradient id="paint3_linear_13_455" x1="18.0435" y1="16.8968" x2="29.776" y2="28.2588" gradientUnits="userSpaceOnUse">
<stop stop-color="white" stop-opacity="0.25"/>
<stop offset="1" stop-color="white" stop-opacity="0"/>
</linearGradient>
</defs>
</svg>
