<svg width="112" height="58" viewBox="0 0 112 58" fill="none" xmlns="http://www.w3.org/2000/svg">
<path d="M5.01562 39H1.39062C1.30729 39 1.26562 38.9479 1.26562 38.8438L1.32812 16.8594C1.32812 16.776 1.36979 16.7344 1.45312 16.7344H7.92188C9.07812 16.7344 10.1406 17.0156 11.1094 17.5781C12.0781 18.1406 12.849 18.8958 13.4219 19.8438C14.0052 20.7917 14.2969 21.8646 14.2969 23.0625C14.2969 23.8438 14.1771 24.5521 13.9375 25.1875C13.6979 25.8229 13.4167 26.3594 13.0938 26.7969C12.7812 27.2344 12.4948 27.5573 12.2344 27.7656C13.3906 29.0469 13.9688 30.5521 13.9688 32.2812L14 38.8438C14 38.9479 13.9479 39 13.8438 39H10.2188C10.1354 39 10.0938 38.9688 10.0938 38.9062V32.2812C10.0938 31.5104 9.82292 30.8438 9.28125 30.2812C8.73958 29.7188 8.07292 29.4375 7.28125 29.4375H5.17188L5.14062 38.8438C5.14062 38.9479 5.09896 39 5.01562 39ZM7.92188 20.5625H5.17188V25.5938H7.92188C8.57812 25.5938 9.16146 25.349 9.67188 24.8594C10.1927 24.3698 10.4531 23.7708 10.4531 23.0625C10.4531 22.3854 10.2031 21.8021 9.70312 21.3125C9.20312 20.8125 8.60938 20.5625 7.92188 20.5625ZM22.5938 39.3125C21.4688 39.3125 20.4271 39.0208 19.4688 38.4375C18.5104 37.8542 17.7448 37.0729 17.1719 36.0938C16.6094 35.1042 16.3281 34.026 16.3281 32.8594L16.3906 16.8594C16.3906 16.776 16.4323 16.7344 16.5156 16.7344H20.1094C20.1927 16.7344 20.2344 16.776 20.2344 16.8594V32.8594C20.2344 33.5781 20.4635 34.1927 20.9219 34.7031C21.3802 35.2031 21.9375 35.4531 22.5938 35.4531C23.2812 35.4531 23.8542 35.2031 24.3125 34.7031C24.7708 34.1927 25 33.5781 25 32.8594V16.8594C25 16.776 25.0417 16.7344 25.125 16.7344H28.7188C28.8021 16.7344 28.8438 16.776 28.8438 16.8594L28.9062 32.8594C28.9062 34.0365 28.625 35.1198 28.0625 36.1094C27.4896 37.0885 26.7292 37.8698 25.7812 38.4531C24.8333 39.026 23.7708 39.3125 22.5938 39.3125ZM34.9062 39H31.7031C31.5365 39 31.4531 38.9271 31.4531 38.7812L31.4219 16.9844C31.4219 16.8177 31.5052 16.7344 31.6719 16.7344H34.5625L39.9688 29.3438L39.8125 16.9844C39.8125 16.8177 39.9062 16.7344 40.0938 16.7344H43.2656C43.3906 16.7344 43.4531 16.8177 43.4531 16.9844L43.4844 38.8125C43.4844 38.9375 43.4323 39 43.3281 39H40.5156L34.9688 27.2188L35.2031 38.75C35.2031 38.9167 35.1042 39 34.9062 39ZM56.7344 39H46.3906C46.3073 39 46.2656 38.9479 46.2656 38.8438L46.2969 16.8594C46.2969 16.776 46.3385 16.7344 46.4219 16.7344H56.7031C56.7865 16.7344 56.8281 16.7865 56.8281 16.8906V20.4688C56.8281 20.5521 56.7865 20.5938 56.7031 20.5938H50.1406V25.5938H56.7031C56.7865 25.5938 56.8281 25.6354 56.8281 25.7188L56.8594 29.3438C56.8594 29.4271 56.8177 29.4688 56.7344 29.4688H50.1406V35.0625H56.7344C56.8177 35.0625 56.8594 35.1146 56.8594 35.2188V38.875C56.8594 38.9583 56.8177 39 56.7344 39ZM65.1406 39.3125C64.0052 39.3125 62.9583 39.0208 62 38.4375C61.0521 37.8542 60.2917 37.0781 59.7188 36.1094C59.1562 35.1302 58.875 34.0573 58.875 32.8906V31.4219C58.875 31.3073 58.9271 31.25 59.0312 31.25H62.625C62.7083 31.25 62.75 31.3073 62.75 31.4219V32.8906C62.75 33.5885 62.9844 34.1927 63.4531 34.7031C63.9219 35.2031 64.4844 35.4531 65.1406 35.4531C65.8073 35.4531 66.375 35.1979 66.8438 34.6875C67.3125 34.1667 67.5469 33.5677 67.5469 32.8906C67.5469 32.1094 67.0365 31.4271 66.0156 30.8438C65.849 30.7396 65.6302 30.6146 65.3594 30.4688C65.099 30.3125 64.7865 30.1354 64.4219 29.9375C64.0573 29.7396 63.7031 29.5469 63.3594 29.3594C63.0156 29.1615 62.6823 28.974 62.3594 28.7969C61.1927 28.1094 60.3229 27.25 59.75 26.2188C59.1875 25.1771 58.9062 24.0104 58.9062 22.7188C58.9062 21.5312 59.1979 20.4583 59.7812 19.5C60.3646 18.5521 61.125 17.8021 62.0625 17.25C63.0104 16.6875 64.0365 16.4062 65.1406 16.4062C66.276 16.4062 67.3177 16.6875 68.2656 17.25C69.2135 17.8229 69.9688 18.5833 70.5312 19.5312C71.1042 20.4792 71.3906 21.5417 71.3906 22.7188V25.3438C71.3906 25.4271 71.349 25.4688 71.2656 25.4688H67.6719C67.5885 25.4688 67.5469 25.4271 67.5469 25.3438L67.5156 22.7188C67.5156 21.9688 67.2812 21.3594 66.8125 20.8906C66.3438 20.4219 65.7865 20.1875 65.1406 20.1875C64.4844 20.1875 63.9219 20.4375 63.4531 20.9375C62.9844 21.4375 62.75 22.0312 62.75 22.7188C62.75 23.4167 62.8958 24 63.1875 24.4688C63.4896 24.9375 64.0365 25.3854 64.8281 25.8125C64.9115 25.8542 65.1042 25.9583 65.4062 26.125C65.7083 26.2917 66.0417 26.4792 66.4062 26.6875C66.7812 26.8854 67.1198 27.0677 67.4219 27.2344C67.724 27.3906 67.9062 27.4844 67.9688 27.5156C69.0312 28.1094 69.8698 28.8385 70.4844 29.7031C71.1094 30.5677 71.4219 31.6302 71.4219 32.8906C71.4219 34.1094 71.1406 35.2031 70.5781 36.1719C70.0052 37.1406 69.2448 37.9062 68.2969 38.4688C67.349 39.0312 66.2969 39.3125 65.1406 39.3125ZM80.4688 39H76.8594C76.7656 39 76.7188 38.9479 76.7188 38.8438V20.5938H72.5625C72.4583 20.5938 72.4062 20.5417 72.4062 20.4375L72.4375 16.8594C72.4375 16.776 72.4792 16.7344 72.5625 16.7344H84.7188C84.8333 16.7344 84.8906 16.776 84.8906 16.8594V20.4375C84.8906 20.5417 84.849 20.5938 84.7656 20.5938H80.5625L80.5938 38.8438C80.5938 38.9479 80.5521 39 80.4688 39ZM85.375 38.8438L89.3438 16.8594C89.3646 16.776 89.4167 16.7344 89.5 16.7344H94.1406C94.224 16.7344 94.276 16.776 94.2969 16.8594L98.1094 38.8438C98.1198 38.9479 98.0781 39 97.9844 39H94.4375C94.3333 39 94.276 38.9479 94.2656 38.8438L93.9219 36.5H89.5625L89.2188 38.8438C89.2083 38.9479 89.1562 39 89.0625 39H85.5C85.4167 39 85.375 38.9479 85.375 38.8438ZM91.6406 24.0938L90.2031 33.0781H93.2812L91.9688 24.0938L91.7812 22.9062L91.6406 24.0938ZM106.938 39H103.328C103.234 39 103.188 38.9479 103.188 38.8438V20.5938H99.0312C98.9271 20.5938 98.875 20.5417 98.875 20.4375L98.9062 16.8594C98.9062 16.776 98.9479 16.7344 99.0312 16.7344H111.188C111.302 16.7344 111.359 16.776 111.359 16.8594V20.4375C111.359 20.5417 111.318 20.5938 111.234 20.5938H107.031L107.062 38.8438C107.062 38.9479 107.021 39 106.938 39Z" fill="white"/>
</svg>
